<svg id="Layer_1" data-name="Layer 1" xmlns="http://www.w3.org/2000/svg" viewBox="0 0 684 88.24"><path d="M71.65,116.14,74.81,113l9.45,9.45a34.33,34.33,0,0,0,0-45.19l-9.39,9.38-3.16-3.16,9.39-9.39a34.31,34.31,0,0,0-45.27-.19l9.39,9.4-3.16,3.16L32.67,77a34.31,34.31,0,0,0-.11,45.47L42,113l3.16,3.16-9.46,9.46a34.32,34.32,0,0,0,45.39-.07Z" transform="translate(-24 -65.45)"/><g id="svg2_1" data-name="svg2 1"><path d="M708,83,695.21,86.1c-3.46-5.92-10.93-9.11-21-9.11-11.17,0-17.29,3.13-17.29,9.11,0,15,47.82,1.37,47.82,28.74,0,11.17-13,18.78-29.63,18.78-13,0-26.21-6-30.5-15l12.55-3.13c3.05,4.79,10.07,7.54,17.71,7.54,10.06,0,16.07-3.13,16.07-8.45,0-14.84-48.19-1.13-48.19-28.18,0-12.52,12.17-20.41,31.36-20.41C690.44,66,703.54,72.73,708,83Z" transform="translate(-24 -65.45)"/><path d="M637,132.46h-14v-12.3c-2.53,8.42-10.69,13.46-21.85,13.46-12,0-17.95-4.1-21.82-15.65-3.46,9.92-12.93,15.65-26.38,15.65-18.05.1-25.66-9.7-25.66-33.15V67.28h14.11V99.4c0,16.66,4.77,23.26,16.7,23.26s17.6-6.85,17.6-23V67.25h13.83v32c0,17.12,4.36,23.1,16,23.1s17.29-7.39,17.29-24.17V67.09H637Z" transform="translate(-24 -65.45)"/><path d="M520.6,99.84c0,22.48-15,33.88-32.88,33.88-10.87.49-21-5.07-25.49-14v12.77h-14V67.34h14V79.68c4.57-8.87,14.59-14.37,25.38-13.94,17.81,0,33,11.53,33,34.1Zm-58.78,0c0,14.28,9.13,23,22.44,23s22.2-8.67,22.2-23S497.4,76.7,484,76.7s-22.09,8.77-22.09,23.14Z" transform="translate(-24 -65.45)"/><path d="M436.89,132.46H422.82V121.54c-2.73,7-10.37,13.33-25.21,11.39l1.49-12.33c16.08,2.75,23.72-5.14,23.72-21.07V67.25h14.07Z" transform="translate(-24 -65.45)"/><path d="M380.91,93.23v29.15h10.38v10.08H380.91V144.3L366.74,147V132.31h-21.2v-9.93h21.2V94.58c0-13.46-3.91-18.16-14.8-18.16a53.14,53.14,0,0,0-5.78.6l-1.9-9.93a52.61,52.61,0,0,1,9.79-.91c18.46.16,26.86,7.11,26.86,27.05Z" transform="translate(-24 -65.45)"/><path d="M334.91,153.69H320.77V67.25H335Z" transform="translate(-24 -65.45)"/><path d="M312.58,99.84c0,20.1-14.8,33.88-36.27,33.88-22.82,0-36.65-15.28-34.89-37.17h57.12C298,84,289.38,76.7,275.44,76.7c-10.06,0-16.56,3.13-20.09,9.4l-12.93-1.85C248.16,72.13,259.5,66,275.82,66c22.2,0,36.76,13.4,36.76,33.81Zm-58,6.73c1,10.4,8.79,17,21.48,17,12,0,20.43-5.7,22.09-17Z" transform="translate(-24 -65.45)"/><path d="M233.12,132.46h-14V120.6c-3.45,8.11-11.44,13-23.47,13-19.81,0-29-10.39-29-31V67.25h14v34.44c0,14.24,6,21,19.33,21s19.09-8.07,19.09-22.44v-33h14Z" transform="translate(-24 -65.45)"/><path d="M162.21,83,149.42,86.1C146,80.18,138.49,77,128.46,77c-11.17,0-17.29,3.13-17.29,9.11,0,15,47.82,1.37,47.82,28.74,0,11.17-13.07,18.78-29.63,18.78-13,0-26.24-6-30.49-15l12.55-3.13c3,4.79,10,7.54,17.7,7.54,10,0,16-3.13,16-8.45,0-14.84-48.16-1.13-48.16-28.18C97,73.92,109.17,66,128.36,66c16.28,0,29.46,6.7,33.85,16.93Z" transform="translate(-24 -65.45)"/></g></svg>